<?xml version="1.0" encoding="UTF-8"?>
<!DOCTYPE svg PUBLIC "-//W3C//DTD SVG 1.1//EN" "http://www.w3.org/Graphics/SVG/1.1/DTD/svg11.dtd">
<!-- Creator: CorelDRAW 2018 (64-Bit) -->
<svg xmlns="http://www.w3.org/2000/svg" xml:space="preserve" width="151.307mm" height="145.437mm" version="1.1" style="shape-rendering:geometricPrecision; text-rendering:geometricPrecision; image-rendering:optimizeQuality; fill-rule:evenodd; clip-rule:evenodd"
viewBox="0 0 151300.8 145431.7"
 xmlns:xlink="http://www.w3.org/1999/xlink">
 <defs>
  <style type="text/css">
   <![CDATA[
    .fil0 {fill:#040707}
   ]]>
  </style>
 </defs>
 <g id="Слой_x0020_1">
  <metadata id="CorelCorpID_0Corel-Layer"/>
  <path class="fil0" d="M6664.7 74530.4c8668.5,665 12917.2,259.1 21820.4,-3446.9 4243.8,-1765 12926.9,-7558.6 13415.9,-7451.1 3002,655.2 4801.1,9700.1 -10658.4,16569.4l-3041.1 1290.8c-39.1,19.6 -122.2,73.3 -176,112.5 3813.6,2434.8 7167.5,3911.4 10316.1,7309.3 9753.9,10521.5 8233.4,23634.2 -5153.2,27350 -2322.3,645.4 -5622.6,591.6 -7685.8,1476.5 210.2,107.6 136.9,122.2 772.5,283.6 3632.7,904.5 10609.5,-420.5 13978.2,-2786.8 3432.2,-2410.4 6175.1,-5925.7 6908.4,-11587.4 1105,-8487.6 -4722.9,-16452.1 -11000.6,-20935.4 -997.4,-713.8 -1877.4,-1090.3 -2811.3,-1804.1 17160.9,-6404.9 12834,-22323.9 8125.8,-19972.2 -3505.6,1745.4 -8218.7,6390.2 -17170.7,9734.3 -6976.8,2605.9 -16755.2,3442 -17649.9,3867.4l9.8 -9.8zm124756.8 -52744.3l0 -5544.3c0,-1872.5 -48.9,-3515.3 -146.7,-4933.2 -97.8,-1417.8 -244.5,-2610.8 -444.9,-3583.8l0 -4.9c-190.7,-943.6 -503.6,-1813.8 -943.6,-2605.9 -440,-792.1 -1007.2,-1510.7 -1711.2,-2161 -2121.9,-1970.3 -4473.6,-2953.1 -7074.6,-2953.1 -953.4,0 -1843.2,107.6 -2679.3,327.6 -836.1,220 -1623.2,542.7 -2366.3,977.9l-4.9 4.9c-753,435.2 -1417.8,938.8 -1994.8,1510.7 -572.1,567.2 -1061,1207.7 -1456.9,1911.6l-14.7 19.6c-396,660.1 -713.8,1403.1 -963.2,2214.8 -249.4,831.2 -420.5,1730.7 -513.4,2703.7 -97.8,997.4 -166.2,2190.3 -210.2,3578.9 -34.2,1129.4 -53.8,2439.7 -63.6,3930.8 0,29.3 0,58.7 0,88 0,6971.9 -2293,6923 -5739.9,4405.1 -1637.8,-2346.8 -3735.4,-4224.2 -4977.2,-5221.6 -1623.2,-1305.4 -3383.3,-2469 -5265.6,-3490.9l-4.9 -4.9c-850.7,-650.3 -1681.8,-1046.3 -2478.8,-1232.1 -8228.5,-3750 -18427.3,-5099.4 -29344.8,-4106.9 -20045.5,1818.7 -37157.7,11978.4 -48940.5,27090.9 -26465.1,33930.8 -14222.6,85139.9 24973.8,103792.1 25765.9,12262 55032.4,7622.2 75327.3,-8932.5 2464.1,3774.5 4806,6727.4 7035.5,8869 2610.8,2513 5255.9,3754.9 7930.2,3754.9 3197.5,0 6038.1,-1109.9 8585.4,-3295.3 2513,-2185.4 3754.9,-4634.9 3754.9,-7314.2 0,-1535.2 -782.3,-4962.5 -2415.2,-10247.7 -1632.9,-5319.4 -2469,-10443.3 -2449.5,-15342.2 9.8,-2229.4 44,-7676 68.5,-10521.5 2483.7,-8600.1 2953.1,-17278.3 2048.5,-28322.9 4732.7,-425.4 7632,-391.1 12359.8,39.1 -58.7,-53.8 -141.8,-122.2 -185.8,-151.6 -44,-34.2 -132,-107.6 -185.8,-146.7 -2958,-2121.9 -9089,-1765 -12330.4,-1574.3l-459.6 -3085.1c6233.7,-1945.9 3769.6,-2214.8 12379.3,-2742.8 -6184.8,-1061 -7216.4,-625.8 -12951.4,826.3 -1222.3,-6810.6 -5197.2,-15244.4 -8913,-20935.4l-3994.4 -5896.4 -532.9 1183.2c-1173.4,4454 -1041.4,7773.8 -4219.3,13635.9 -6942.6,-1114.8 -14149.3,-449.8 -20231.3,2043.6 -4854.9,1989.9 -469.4,767.6 -7793.3,-1383.6 -3310,-973 -6981.7,-1163.7 -10609.5,-792.1 929,1730.7 8908.1,7182.2 7749.3,19282.9 -3970,-1061 -9753.9,-1647.6 -13103,552.5 5290.1,-220 7988.9,-826.3 12838.9,1168.6l-919.2 2894.4c-5070.1,-244.5 -10423.7,684.5 -13367,3432.2 4581.1,-889.9 7025.7,-2219.7 12433.1,-1877.4 -498.7,1324.9 -2366.3,3691.4 -3178,4434.4 -4722.9,4322 -10751.3,6571 -17341.8,4424.7 572.1,-1828.5 2752.6,-3544.7 3124.2,-8130.7 777.4,-9661 -7495.1,-15459.5 -17532.5,-15899.6 3549.6,-5544.3 5832.8,-9289.4 6351.1,-17038.7 200.5,-3016.6 14.7,-8497.4 -2469,-9323.6 -3138.9,-1041.4 -5270.5,2972.6 -6292.4,4874.5 -2654.8,4952.7 -5471,10594.8 -8399.6,15019.5 -7905.8,11929.5 -28875.4,15200.4 -25516.5,210.2 1202.8,-5383 5505.2,-12149.5 8184.5,-15234.6 3417.6,-3935.7 7201.7,-7710.2 12790,-10619.3 12462.5,-6488 24744.1,-7514.6 38575.5,-4033.5 4820.7,1212.6 12286.4,6243.5 18833.1,9328.5l4.9 4.9c14271.5,7553.7 37377.7,2209.9 37377.7,-9837l4.9 -14.4zm-8204 34879.3c-5392.8,1105 -7333.7,5637.2 -6170.2,9352.9 1075.7,3442 5280.3,6351.1 10277,5290.1 10986,-2337 6707.9,-16862.8 -4106.9,-14643l0.1 0zm-25775.7 3456.7c-9944.5,2620.6 -7700.4,16026.7 2146.3,14115.1 9964.1,-1936.1 7314.2,-16608.5 -2146.3,-14115.1zm10257.5 11460.2c352,801.9 102.7,386.3 572.1,875.2l2014.3 1427.6c215.1,4933.2 -2444.6,6468.4 -6766.6,4825.6 567.2,2586.4 6571,4502.9 8130.7,-2033.9 992.5,1691.6 1432.5,2997.1 4258.4,3041.1 2312.6,34.2 3701.1,-1246.8 3945.5,-3246.4 -3021.5,2674.4 -7079.5,1559.6 -7416.8,-2967.7 860.5,-845.9 1452,-1285.9 2033.9,-2601 -2640.2,-112.5 -4424.7,293.4 -6776.3,674.7l4.8 4.8zm-36820.4 21678.6c2425,2151.2 3295.3,5026.1 1520.5,9010.8 -1427.6,3207.3 -3720.7,4718 -5573.7,7138.2 -4669.1,6096.8 3222,11988.2 12809.6,7309.3 13225.2,-6453.7 14281.3,-30342.1 -48.9,-30938.6 1217.4,1349.4 9939.7,3373.6 8072,14647.9 -1158.8,6976.8 -4429.6,11474.9 -9172,13997.7 -5627.4,2992.2 -14481.7,2693.9 -7544,-6688.3 1246.8,-1681.8 3764.7,-4615.3 4238.9,-7363.1 645.4,-3740.3 -1393.4,-6468.4 -4292.7,-7113.7l-9.7 -0.1zm52949.7 -34546.9c3148.6,-816.5 6517.3,1373.8 7221.3,3715.8 1026.8,3412.7 -1686.7,6214.2 -4297.5,6874.1 -1314.1,331.6 -2607.9,166.6 -3749.7,-321.8 922.2,-432.4 1593.3,-1752.9 1593.3,-3315.4 0,-1913.8 -1006.9,-3465.3 -2248.9,-3465.3 -1242.1,0 -2248.9,1551.4 -2248.9,3465.3 0,389.2 41.6,763.3 118.4,1112.5 -2017.4,-2702.6 -1799,-6658 3617,-8065.2l-5 0zm-26489.5 3667c7866.7,-2146.3 9343.2,7646.6 2346.8,9641.4 -1015.5,289.6 -1929.1,351.1 -2732.1,238.5 941.9,-413.4 1631.6,-1748.9 1631.6,-3332.9 0,-1913.8 -1006.9,-3465.3 -2248.9,-3465.3 -1242.1,0 -2248.9,1551.4 -2248.9,3465.3 0,921.4 233.4,1758.5 614,2379.3 -2786.6,-2243.6 -2356.2,-7565.3 2637.5,-8926.4zm39274.7 49101.8c-2909.1,1427.6 -4512.7,3965.1 -3862.5,8282.3 523.2,3476.2 2332.1,5539.4 3471.3,8365.4 2879.7,7118.6 -6302.2,10697.5 -14291.1,3632.7 -11030,-9744.1 -5686.1,-33050.7 8292,-29804.4 -1535.2,977.9 -10482.4,601.4 -11680.3,11973.5 -743.2,7030.6 1212.6,12242.4 5114.1,15933.8 4625.1,4380.7 13239.9,6458.6 9054.8,-4434.4 -753,-1955.6 -2395.7,-5451.4 -2121.9,-8228.5 376.5,-3779.4 3070.4,-5862.1 6033.3,-5715.5l-9.7 -4.9z"/>
 </g>
</svg>
