<?xml version="1.0" encoding="UTF-8"?>
<!DOCTYPE svg PUBLIC "-//W3C//DTD SVG 1.1//EN" "http://www.w3.org/Graphics/SVG/1.1/DTD/svg11.dtd">
<!-- Creator: CorelDRAW 2018 (64-Bit) -->
<svg xmlns="http://www.w3.org/2000/svg" xml:space="preserve" width="489.763mm" height="184.808mm" version="1.1" style="shape-rendering:geometricPrecision; text-rendering:geometricPrecision; image-rendering:optimizeQuality; fill-rule:evenodd; clip-rule:evenodd"
viewBox="0 0 33601.3 12679.1"
 xmlns:xlink="http://www.w3.org/1999/xlink">
 <defs>
  <style type="text/css">
   <![CDATA[
    .fil1 {fill:#040707}
    .fil0 {fill:#040707;fill-rule:nonzero}
   ]]>
  </style>
 </defs>
 <g id="Слой_x0020_1">
  <metadata id="CorelCorpID_0Corel-Layer"/>
  <path class="fil0" d="M8687.2 10241.9c41.9,-148.4 62.8,-291.9 62.8,-429.7 0,-111 -21.5,-218.3 -63.8,-321.6 -43.6,-106.7 -109.9,-211 -198.1,-312.9 -85,-98.3 -180.8,-172.5 -287.4,-221.8 -106.1,-49.1 -224.2,-74 -354.4,-74 -109.3,0 -209.9,17.1 -301.2,50.9 -90.3,33.4 -172.4,83.6 -245.5,150.2l-1.6 1.2c-79.5,69.7 -156.4,153.8 -230.4,252.1 -74.6,99.2 -146.2,212.7 -214.4,340.7l-1.6 3.2c-133.9,231.4 -277.9,433.9 -432.1,606.8 -156,174.8 -322.9,320 -501.3,434.8l-0.1 -0.1c-178,115.5 -373.4,202 -586.2,259.4 -211.7,57.2 -440.4,85.8 -686,85.8 -182.7,0 -359.4,-17.9 -529.3,-53.6 -169.8,-35.7 -331.7,-89.2 -484.8,-160.3l0.1 -0.2c-155.3,-71.5 -299.1,-159.3 -431.4,-264 -132.9,-105.1 -253.4,-226.2 -361.5,-363.6l0.1 -0.1c-109.8,-136.3 -205.4,-287.2 -287.4,-452.1 -81.6,-164 -150.4,-342.8 -207,-535.7 -56.2,-191.3 -98.7,-391.8 -127.2,-601.5 -28.5,-210.2 -43,-427.9 -43,-653.2 0,-483.1 54.6,-915.9 164.3,-1298.2 110.6,-385.8 277.2,-720.2 499.9,-1003 222.5,-285.9 482.3,-500.6 778.4,-644.2 296.7,-143.9 628,-215.7 993.2,-215.7 250.9,0 481.2,28.7 691.2,86.2 211.7,57.9 401.3,144.9 569.1,260.9l0.4 0.4c162.3,113.3 321.3,255.3 476.9,425.1 155.1,169.3 306.4,365.4 453.7,587.5 80.3,111 155,205.3 224.4,282.7 68.5,76.4 132.8,138.1 193.2,184.8 55.3,42.7 117.7,74.9 187.3,96.4 71,21.9 150.5,32.9 238.5,32.9 138.5,0 265.5,-22.2 381.6,-66.4 115.9,-44.2 221.7,-110.4 318,-198.4l-0.2 -0.2c94.8,-89.5 166.1,-187.9 213.5,-295.6 47,-106.9 70.7,-224.1 70.7,-352 0,-128.7 -22.1,-262.7 -66.2,-402.4 -45.3,-143.4 -113.2,-291.9 -203.5,-445.8l-0.4 -0.4c-89.2,-153 -199.5,-302.3 -330.4,-447.9 -133.3,-148.3 -286.4,-291.5 -458.9,-429.5 -171.4,-137.1 -362.6,-261.8 -572.9,-374.4 -212.5,-113.8 -445.1,-215.1 -697.1,-304.5 -250.7,-88.4 -513.4,-154.3 -787.9,-198 -274.5,-43.7 -563,-65.4 -865.4,-65.4 -487.5,0 -939.3,50 -1355.6,150 -414.8,99.6 -796.5,249.4 -1145.4,449.2l-0.4 0c-346.2,197.6 -652,437.1 -917,718 -265.2,281.1 -489.8,603.9 -673.3,968 -184.1,365.4 -322.7,758.9 -415.2,1180.5 -92.5,421.5 -139,871.2 -139,1349 0,706.8 100.7,1340 302.2,1899.8 200.7,557.7 501.8,1044.3 903.4,1460.4 399.3,415.2 877.2,726.6 1433.3,934.2 558.9,208.7 1198.4,313 1918.1,313 340.4,0 662.6,-22.5 966.6,-68 303.3,-45.3 588.9,-113.5 856.8,-204.7l0.8 0c268.2,-89.4 513.5,-193.9 735.8,-312.7 222.3,-118.8 421.7,-252.4 598.2,-400 177,-148 330.5,-299.2 460.3,-453.2 129.4,-153.6 236.2,-311 320.1,-471.7l0 -0.8c85.4,-160.9 149.3,-316.7 191.6,-466.5zm11498.9 -6813.5l-260.5 0c-169.7,0 -317.4,18.4 -443.5,54.8 -123,35.5 -226.6,88.4 -311,158.3l-0.1 -0.1c-81.3,69.9 -142.4,149.1 -182.9,237 -40.5,87.8 -60.9,185.8 -60.9,293.8 0,111.1 19.5,211.8 58.7,301.5 38.8,88.7 97.3,168.1 175.7,237.5l1.2 1.2c77.3,70.9 173.9,124.1 289.6,159.9 119.8,37.1 260.8,55.5 422.8,55.5l413.8 0 0 4647.4c0,365.7 14.5,692.5 43.6,980.3 28.9,286.6 72.4,537.2 130.4,751.8 55.9,208.3 142.4,393.2 259.6,555 117.4,162.1 266,301.5 446,418.7l0.4 0c179.5,117.8 402.8,206.4 669.7,265.7 271.3,60.3 588.9,90.4 952.7,90.4 385.9,0 725.2,-24.6 1018.2,-74.3 290,-49.1 534.5,-122.3 733.8,-219.8l0.4 -0.4c375.6,-182.4 563.4,-441.9 563.4,-780.9 0,-100.2 -16,-191.2 -48.6,-273.1 -32.3,-81 -81.8,-155.2 -149.2,-222.6 -68.4,-68.4 -139.6,-119.2 -213.7,-152.3 -72.4,-32.3 -149.5,-48.5 -231.7,-48.5 -61.9,0 -136.5,6.3 -223.2,18 -87.3,11.9 -191.2,30.1 -310.4,54l-0 -0.1c-117.2,24.9 -224.5,43.5 -321.1,56.2 -102.2,13.4 -189.6,20 -261.5,20 -137.9,0 -258.3,-17.4 -361.6,-52.3 -108.9,-36.7 -197.8,-92.5 -267.2,-167.2l-0.8 -1.2c-63.9,-70.6 -115,-151.5 -153.7,-242.1 -38.3,-89.8 -64.6,-189.5 -79.3,-298.5 -13.7,-102.1 -23.6,-226.6 -30,-372.7 -6.6,-149.1 -9.7,-314.7 -9.7,-496.6l0 -4455 544 0c229.7,0 431.1,-15 604.8,-45.4 170.2,-29.8 313.2,-73.9 429.6,-132.8 107.4,-54.3 187.8,-128 240.8,-221.4 54.2,-95.4 81.4,-214 81.4,-356.1 0,-109.2 -19.3,-208.1 -57.9,-296.4 -38.4,-87.8 -96.5,-167 -174.4,-237.1 -76.4,-68.6 -171.7,-120.6 -285.2,-155.7 -117.6,-36.3 -255.4,-54.7 -412.8,-54.7l-970.4 0 0 -1716.4c0,-199.2 -5,-373.8 -15.5,-523.9 -10.5,-150.1 -26.1,-276.5 -47.2,-379.4l0 -0.4c-20,-98.9 -52.7,-189.7 -98.7,-272.6 -45.7,-82.5 -105.1,-157.7 -178.7,-226 -222.8,-206.5 -469,-309.8 -741.3,-309.8 -100.1,0 -193.7,11.4 -281.1,34.1 -87.4,22.8 -169.8,56.9 -247.3,102.4l-0.8 0.4c-78.9,45.5 -148.5,98.3 -208.9,158.3 -59.9,59.5 -110.7,126.2 -152.2,199.8l-1.6 2.4c-41.3,69.2 -74.8,146.6 -100.6,232 -26.4,87.6 -44.5,182.4 -54.1,284.5 -10.2,106 -17.4,232.7 -22.2,379.9 -4.5,140.9 -6.6,310.4 -6.6,507.5l0 1527 -102.9 0zm13299.9 7099.8c76.7,-269.8 115.3,-562.8 115.3,-878.9 0,-207.5 -28.7,-402.3 -85.8,-584.9 -57.1,-182.6 -142.6,-353.5 -256,-513.2l-0.4 -0.4c-115,-163.3 -256.9,-315.2 -425.6,-455.8 -170.8,-142.4 -369.3,-274 -595.6,-395 -227.8,-121.9 -491.1,-236.4 -789.7,-343 -297.4,-106.1 -626.3,-203.1 -986.3,-290.2 -310.2,-75.7 -586.8,-145.4 -829.8,-209.1 -245.6,-64.4 -456.2,-122.4 -631.6,-174 -180,-53 -341.6,-113.5 -485.3,-181.3 -147,-69.4 -276.2,-146.9 -388.3,-232.1l-0.2 0.3c-116.2,-88 -203.8,-190 -262.7,-305.6 -59.4,-116.6 -89.1,-245.5 -89.1,-386.3 0,-155 40.7,-297.9 121.6,-428.6 78.8,-127.3 195.2,-241.1 348.8,-341.3l0.8 -0.8c151.6,-96.4 321.8,-168.9 510.6,-217.1 185.7,-47.4 389.1,-71.4 610.3,-71.4 214.9,0 408.4,17.8 580.8,53.9 175.7,36.7 328.6,92.3 459.1,167.1 126.2,72.4 244.8,157.6 355.6,255.4 110.2,97.3 211.7,206.3 304.3,326.6l0.1 -0.1c108.8,136.4 210.7,255 305.7,356.2 95.7,102 184,186.2 264.8,252.8 76.3,61.7 160.2,107.7 251.7,138.1 92.3,30.7 194.1,45.8 305.3,45.8 157.4,0 295.8,-19.8 414.4,-59.6 114.2,-38.3 211.1,-95.6 290.1,-172l1.2 -0.8c80.5,-75.3 140.9,-162.2 181.2,-259.7 40.8,-98.7 61.2,-209.5 61.2,-331.6 0,-114.9 -19.6,-229.8 -58.8,-345.6 -40.3,-119.2 -100.8,-239.5 -181.5,-361.9l-0.4 -0.4c-79.9,-123.4 -179.2,-241.6 -297.8,-354.9 -120.4,-115 -259.9,-224.5 -418.3,-328.7l-0.2 0.3c-158.1,-103.5 -336.5,-196.9 -534.6,-279.9 -200,-83.8 -419.3,-156.9 -657.6,-219 -237.3,-62.2 -491.7,-108.7 -762.7,-139.7 -270.3,-30.9 -557.3,-46.2 -860.6,-46.2 -385.2,0 -740.9,31.2 -1066.9,93.1 -325.1,61.8 -621.4,154 -888.9,276.2l-0.4 0.4c-269,122.3 -504.4,264.3 -706.6,426.7 -200.9,161.5 -369.3,343.2 -505.4,545.8l0.1 0.1c-135.3,203.6 -237,412.5 -304.7,627.4 -67.5,214.1 -101.4,434.8 -101.4,663 0,253.9 36.6,487.8 109.4,701 72.4,212.1 181,404.8 325.4,577.2 149.2,176.5 322.8,336.3 520.6,478.7 197.6,142.3 420.1,267.7 667.3,375.5l-0.1 0.2c253.2,109.8 545.3,217.8 876.1,323.6 327.6,104.8 693.2,207.3 1097,307.1l-0 0.1c363,87.8 675.2,177.9 936.7,269.9 267.6,94.1 483.8,190.7 648.7,289.4l0.8 0.4c346.8,212.6 520.2,543.7 520.2,999.5 0,155.9 -43.3,303.2 -130.2,441.5 -83.2,132.4 -206.5,255.3 -370.1,368.1l0.1 0.2c-161.1,112.1 -344.5,196.4 -550.2,252.4 -202.5,55.1 -426.5,82.9 -672,82.9 -298.3,0 -567.1,-26.8 -806,-80.9 -242.2,-54.8 -452.6,-137.5 -630.9,-248.6l0 -0.1c-176.3,-108.4 -339.9,-244.8 -490.7,-408.4 -150.6,-163.4 -288.7,-354.3 -414.3,-571.7l-1.2 -2.4c-57.6,-105.4 -117.2,-199 -178.9,-281.4 -59.9,-80.1 -120.6,-147.8 -182.1,-203.9 -55.9,-50.9 -124,-89.6 -204.6,-115.6 -84.3,-27.2 -183.4,-41 -297.6,-41 -129.1,0 -246.1,20.6 -350.8,62 -103.8,41.1 -196.4,102.8 -277.7,185.4l-1.2 1.2c-83.2,81.9 -145.2,172.1 -186.2,270.4 -40.9,98.1 -61.2,205.6 -61.2,322.5 0,184.6 34,368.6 101.6,552 68.9,186.8 172.4,373.2 310.1,559.3 138.9,187.1 316.4,359.2 532.7,516 217.5,157.6 473.8,299.3 769.2,424.7 295.8,127 622.2,222.4 979.3,286.3 358.2,64.1 746.7,96.1 1165.4,96.1 441.9,0 848.2,-29.1 1219.3,-87.6 370.3,-58.4 707.4,-146.1 1011.6,-263.4 302.5,-116.7 567.6,-260.3 795,-430.9 225.4,-169 414.3,-365.1 566.4,-588.3 152.1,-223.2 266.7,-469.7 343.3,-739z"/>
  <path class="fil1" d="M9438.4 7814.8c594.7,45.5 886.1,17.8 1497.2,-236.6 291.2,-121.2 887,-518.5 920.6,-511.2 206.1,44.9 329.6,665.4 -731.2,1136.7l-208.7 88.7c-2.6,1.5 -8.2,4.9 -12,7.8 261.6,167.2 491.7,268.3 707.8,501.6 669.1,721.9 564.9,1621.5 -353.5,1876.3 -159.4,44.2 -385.8,40.6 -527.2,101.4 14.4,7.4 9.2,8.4 53,19.3 249.1,61.9 727.8,-28.8 959.1,-191.3 235.3,-165.3 423.5,-406.5 474,-795 75.7,-582.5 -324,-1128.9 -754.8,-1436.4 -68.4,-48.8 -128.9,-74.8 -192.8,-123.9 1177.3,-439.4 880.6,-1531.5 557.6,-1370.4 -240.4,119.9 -564,438.5 -1178.2,667.8 -478.8,178.8 -1149.4,236.2 -1211,265.3zm8559.5 -3618.9l0 -380.3c0,-128.4 -3.3,-241.2 -10,-338.4 -6.8,-97.1 -16.9,-179.1 -30.6,-246l0 -0.2c-13.1,-64.9 -34.6,-124.4 -64.8,-178.9 -30,-54.2 -69,-103.6 -117.3,-148.3 -145.7,-135.1 -306.9,-202.6 -485.2,-202.6 -65.4,0 -126.6,7.5 -183.9,22.4 -57.3,14.9 -111.3,37.3 -162.2,67.1l-0.4 0.2c-51.7,29.8 -97.4,64.5 -136.9,103.7 -39.4,39.1 -72.7,82.9 -99.9,131.2l-0.9 1.3c-27.1,45.4 -49.1,96.1 -65.9,152 -17.2,57.1 -29,118.9 -35.3,185.5 -6.6,68.5 -11.3,150.4 -14.3,245.5 -2.5,77.5 -3.8,167.4 -4.2,269.6 -0,2 -0.1,4 -0.1,6.1 0,478.5 -157.4,474.9 -393.8,302.1 -112.3,-161 -256.3,-289.8 -341.4,-358.2 -111.3,-89.5 -232.1,-169.3 -361.2,-239.4l-0.3 -0.3c-58.3,-44.5 -115.5,-71.7 -170.1,-84.7 -564.7,-257.3 -1264.3,-349.7 -2013.4,-281.7 -1375.4,124.9 -2549.4,821.9 -3357.8,1858.5 -1815.6,2328.1 -975.8,5841.5 1713.4,7121.2 1767.9,841.3 3775.9,523.1 5168.2,-613 169,259.1 329.9,461.5 482.7,608.5 179.2,172.4 360.6,257.5 544.2,257.5 219.5,0 414.3,-76.1 589,-226.2 172.4,-150.1 257.5,-318 257.5,-501.7 0,-105.3 -53.7,-340.4 -165.7,-703.2 -112,-365 -169.4,-716.7 -168,-1052.6 0.7,-153 3.1,-526.6 4.6,-721.7 170.5,-590.2 202.5,-1185.5 140.4,-1943.2 324.9,-29.2 523.6,-26.8 848,2.6 -4.1,-3.7 -9.6,-8.3 -12.7,-10.6 -3,-2.3 -9,-7.5 -12.7,-10.2 -203.1,-145.5 -623.6,-121.2 -845.9,-107.9l-31.5 -211.6c427.7,-133.4 258.5,-152 849.4,-188.1 -424.2,-72.7 -495,-43 -888.7,56.8 -83.9,-467.2 -356.4,-1045.8 -611.6,-1436.2l-274.1 -404.7 -36.5 81.1c-80.6,305.6 -71.4,533.4 -289.4,935.4 -476.4,-76.6 -970.6,-30.9 -1388.1,140.2 -332.9,136.5 -32.2,52.6 -534.6,-95.1 -227,-66.7 -479.2,-79.9 -728,-54.5 63.8,118.7 611.1,492.6 531.8,1322.8 -272.2,-72.8 -669.3,-113 -899.1,38 363.1,-15 548.1,-56.6 881,80.3l-63 198.6c-348,-16.8 -715.1,47.1 -917,235.5 314.2,-61.1 481.9,-152.4 853.1,-128.9 -34.4,90.7 -162.5,253.4 -217.9,304.1 -323.9,296.6 -737.7,450.8 -1189.7,303.6 39.2,-125.5 189,-243.2 214.2,-557.8 53.2,-662.7 -514.2,-1060.7 -1203,-1090.8 243.4,-380.3 400.3,-637.4 435.8,-1169.2 13.8,-206.8 0.9,-583 -169.4,-639.6 -215.5,-71.5 -361.7,204 -431.6,334.4 -182,339.9 -375.2,726.8 -576.4,1030.4 -542.3,818.5 -1981.1,1042.8 -1750.7,14.4 82.7,-369.2 377.8,-833.6 561.4,-1045.4 234.4,-270.2 493.9,-529.1 877.6,-728.7 855.2,-445 1697.8,-515.7 2646.6,-276.7 330.7,83.3 842.8,428.3 1292.1,639.9l0.3 0.2c979.3,518.2 2564.3,151.7 2564.3,-674.8zm-562.9 2393.1c-370,75.9 -503.1,386.8 -423.4,641.7 73.8,236.1 362.3,435.8 705.2,362.9 753.7,-160.3 460.4,-1156.9 -281.7,-1004.6zm-1768.6 237.2c-682.1,179.7 -528.3,1099.7 147.2,968.5 683.6,-132.7 501.8,-1139.5 -147.2,-968.5zm703.6 786.4c24.3,55 7,26.5 39.3,60.1l138.3 97.9c14.7,338.5 -167.8,443.9 -464.1,331.2 38.9,177.6 451,309 557.8,-139.4 68.2,115.9 98.3,205.8 292.2,208.5 158.6,2.3 253.8,-85.6 270.7,-222.7 -207.2,183.6 -485.6,107 -508.8,-203.5 59,-58 99.6,-88.1 139.4,-178.5 -181.1,-7.9 -303.5,20 -464.8,46.4zm-2526.1 1487.3c166.3,147.6 225.9,344.8 104.2,618.3 -98,220.2 -255.4,323.7 -382.5,489.7 -320.5,418.3 221.1,822.6 878.8,501.5 907.4,-442.9 979.9,-2081.6 -3.5,-2122.6 83.6,92.7 682.1,231.4 553.7,1005.1 -79.4,478.6 -304,787.3 -629.3,960.2 -386,205.2 -993.5,185 -517.6,-458.8 85.4,-115.5 258.2,-316.7 290.7,-505.3 44.3,-256.7 -95.7,-443.8 -294.5,-488.2zm3632.8 -2370.4c215.9,-56.1 447.1,94.4 495.4,254.8 70.4,234 -115.7,426.5 -295,471.6 -432.2,109 -832.7,-562.3 -200.4,-726.5zm-1817.4 251.7c539.6,-147.1 640.9,524.8 161,661.5 -504.6,143.8 -644.8,-529.6 -161,-661.5zm2694.7 3368.7c-199.6,98 -309.6,272.2 -265.2,568.2 35.8,238.3 159.9,380 238.3,573.9 197.5,488.5 -432.3,733.9 -980.7,249.3 -756.6,-668.7 -390,-2267.5 568.8,-2045 -105.2,67.1 -719.1,41.4 -801.4,821.3 -50.9,482.4 83.3,839.8 350.8,1093.1 317.4,300.6 908.3,443 621.2,-304.3 -51.5,-134.1 -164.5,-374.1 -145.6,-564.4 25.7,-259.2 210.5,-402.2 413.9,-392.1z"/>
 </g>
</svg>
